<svg xmlns="http://www.w3.org/2000/svg" width="564" height="400" viewBox="0 0 282 200" role="img" aria-labelledby="title desc">
  <title id="title">110年社會科第21題：東亞都城與交流路線圖</title>
  <desc id="desc">示意東亞海岸線，遣唐使由日本經朝鮮半島前往長安的交流路線，並標出日本與長安城。</desc>
  <rect width="282" height="200" fill="#f8f8f5" />
  <path d="M0 0h154l-8 12-16 8-7 12-18 8-8 13-15 7-6 13-13 8-4 15-14 9-6 18-12 8-6 18-14 7-7 15H0z" fill="#e7e8e3" stroke="#79817e" stroke-width="1.5" />
  <path d="M79 0h37l8 11-3 11-10 6-3 12-12 7-7 16-13 8-3 15-10 10-4 14-12 8-5 19-11 8-5 16-9 7-6 16H0V0z" fill="#ecece8" stroke="#8a908c" stroke-width="1.2" />
  <path d="M158 50l10-8 10 3 4 9-6 7-11-1zM177 63l8-5 8 4-2 9-8 4-8-5zM195 72l8-3 5 7-5 8-9-2z" fill="#e5e6e1" stroke="#7a817e" stroke-width="1.2" />
  <path d="M213 63l8-9 7 4-2 11-7 8-5 12-6 8-6-4 5-13zM229 46l6-12 7-3 4 7-6 12-6 9-5-4zM244 27l8-8 8 2 6 11-3 13-7 7-6-5z" fill="#e5e6e1" stroke="#7a817e" stroke-width="1.2" />
  <path d="M117 73c19-4 31-1 43 8 10 7 17 8 25 5 10-5 18-6 29-4" fill="none" stroke="#c3c8c4" stroke-width="1" stroke-dasharray="2 3" />
  <path d="M248 91C224 95 207 93 190 86S160 76 143 78" fill="none" stroke="#38464b" stroke-width="2.2" />
  <path d="M248 91C224 95 207 93 190 86S160 76 143 78" fill="none" stroke="#f8f8f5" stroke-width=".8" stroke-dasharray="3 3" />
  <path d="m147 74-7 4 7 4" fill="none" stroke="#38464b" stroke-width="1.8" />
  <circle cx="248" cy="91" r="4" fill="#263b43" stroke="#fff" stroke-width="1.5" />
  <circle cx="143" cy="78" r="4" fill="#263b43" stroke="#fff" stroke-width="1.5" />
  <rect x="224" y="99" width="48" height="18" rx="3" fill="#fff" stroke="#65716f" />
  <text x="248" y="112" text-anchor="middle" font-family="sans-serif" font-size="11" font-weight="700" fill="#263238">日本</text>
  <rect x="111" y="87" width="48" height="18" rx="3" fill="#fff" stroke="#65716f" />
  <text x="135" y="100" text-anchor="middle" font-family="sans-serif" font-size="10" font-weight="700" fill="#263238">長安城</text>
  <g font-family="sans-serif" font-size="8">
    <rect x="176" y="64" width="55" height="14" rx="3" fill="#f8f8f5" stroke="#b7bdb8" />
    <text x="203.5" y="74" text-anchor="middle" font-weight="700" fill="#333">朝鮮半島</text>
    <circle cx="187" cy="85" r="2.5" fill="#333" />
  </g>
  <rect x="8" y="169" width="266" height="23" rx="3" fill="#fff" stroke="#737b78" />
  <path d="M17 180h33" stroke="#38464b" stroke-width="2" /><text x="55" y="183" font-family="sans-serif" font-size="9" fill="#263238">遣唐使路線</text>
  <circle cx="132" cy="180" r="3" fill="#263b43" /><text x="139" y="183" font-family="sans-serif" font-size="9" fill="#263238">都城</text>
  <path d="M181 177l5 3-5 3z" fill="#87918c" /><text x="190" y="183" font-family="sans-serif" font-size="9" fill="#263238">主要城市</text>
</svg>
