<svg xmlns="http://www.w3.org/2000/svg" viewBox="0 0 760 360" role="img" aria-labelledby="title description">
  <title id="title">柏拉圖洞穴寓言位置示意圖</title>
  <desc id="description">洞穴剖面示意，左側有囚徒，中間有舉物者，後方有光源；甲乙丙標示位置供作答。</desc>
  <rect width="760" height="360" rx="20" fill="#f5f3ec"/>
  <path d="M40 30H720V330H40Z" fill="#737b80"/>
  <path d="M55 275Q70 248 105 247L108 172Q113 119 161 117H592Q650 119 669 164L694 226V303H55Z" fill="#fffefa" stroke="#27313a" stroke-width="4"/>
  <path d="M164 120V276M164 276H256" fill="none" stroke="#27313a" stroke-width="5"/>
  <path d="M307 257V172M307 172H348" fill="none" stroke="#27313a" stroke-width="4"/>
  <path d="M602 220l-15 24h30z" fill="#ff9d3d" stroke="#7d3c20" stroke-width="3"/>
  <path d="M602 229l-8 15h16z" fill="#ffd45f"/>
  <g fill="#25313a" stroke="#25313a" stroke-width="5" stroke-linecap="round">
    <circle cx="119" cy="227" r="9"/>
    <path d="M119 237v25m0-16l-12 10m12-10l12 8m-12 8l-8 17m8-17l10 17" fill="none"/>
    <circle cx="385" cy="228" r="9"/>
    <path d="M385 238v27m0-17l-15-12m15 12l15-11m-15 28l-10 17m10-17l12 17" fill="none"/>
  </g>
  <path d="M422 205h28v24h-28zM463 191h23v20h-23z" fill="#a77e54" stroke="#553f2c" stroke-width="3"/>
  <path d="M603 215L472 210M603 215L430 248" stroke="#f5c95b" stroke-width="2" stroke-dasharray="8 8" opacity=".8"/>
  <g font-family="sans-serif" font-size="28" font-weight="700" text-anchor="middle" fill="#132533">
    <circle cx="118" cy="308" r="21" fill="#d9efff" stroke="#2783ad" stroke-width="3"/><text x="118" y="318">甲</text>
    <circle cx="385" cy="308" r="21" fill="#d9efff" stroke="#2783ad" stroke-width="3"/><text x="385" y="318">乙</text>
    <circle cx="603" cy="278" r="21" fill="#d9efff" stroke="#2783ad" stroke-width="3"/><text x="603" y="288">丙</text>
  </g>
  <text x="380" y="66" font-family="sans-serif" font-size="20" text-anchor="middle" fill="#fff">地面</text>
</svg>
