<svg xmlns="http://www.w3.org/2000/svg" viewBox="0 0 720 360" role="img" aria-labelledby="title desc"><title id="title">土壤液化潛勢評估模型</title><desc id="desc">地層組成、地下水位及地震參數輸入模型，輸出低中高潛勢</desc><rect width="720" height="360" rx="18" fill="#fff"/><text x="360" y="38" text-anchor="middle" font-size="22" font-family="sans-serif" font-weight="700">土壤液化潛勢評估模型</text><g font-family="sans-serif" text-anchor="middle" font-size="18"><rect x="40" y="85" width="175" height="58" rx="12" fill="#e3f2fd" stroke="#1565c0" stroke-width="2"/><text x="127" y="120">地層組成</text><rect x="40" y="160" width="175" height="58" rx="12" fill="#e3f2fd" stroke="#1565c0" stroke-width="2"/><text x="127" y="195">地下水位</text><rect x="40" y="235" width="175" height="58" rx="12" fill="#e3f2fd" stroke="#1565c0" stroke-width="2"/><text x="127" y="270">地震參數</text><rect x="290" y="155" width="170" height="80" rx="14" fill="#fff3cd" stroke="#aa7b00" stroke-width="2"/><text x="375" y="190">液化潛勢</text><text x="375" y="218" font-size="14">估算模型</text><rect x="535" y="85" width="140" height="55" rx="12" fill="#e8f5e9"/><text x="605" y="120">低</text><rect x="535" y="160" width="140" height="55" rx="12" fill="#fff3e0"/><text x="605" y="195">中</text><rect x="535" y="235" width="140" height="55" rx="12" fill="#ffebee"/><text x="605" y="270">高</text></g><g stroke="#455a64" stroke-width="3" fill="none"><path d="M215 114L285 170M215 189H285M215 264L285 220M460 180L525 112M460 195L525 188M460 210L525 262"/><path d="M515 103L530 110L518 121M515 179L530 187L517 196M515 251L530 261L516 271"/></g></svg>
